<svg width="226" height="226" viewBox="0 0 226 226" fill="none" xmlns="http://www.w3.org/2000/svg">
<circle cx="113" cy="113" r="113" fill="#982176"/>
<path d="M143.688 134.832C143.688 138.843 142.749 142.299 140.872 145.2C139.08 148.016 136.093 150.619 131.912 153.008C129.096 154.715 125.811 155.995 122.056 156.848C118.301 157.701 114.504 158.128 110.664 158.128C106.739 158.128 101.875 156.848 96.072 154.288C91.8907 152.24 88.5627 149.808 86.088 146.992C83.6987 144.176 82.504 141.104 82.504 137.776C82.504 135.472 83.016 133.808 84.04 132.784C85.064 131.675 86.728 131.12 89.032 131.12C90.2267 131.12 91.464 131.632 92.744 132.656C94.024 133.595 94.792 134.533 95.048 135.472C96.2427 138.971 98.3333 141.659 101.32 143.536C104.307 145.328 108.019 146.224 112.456 146.224C117.576 146.224 121.843 145.285 125.256 143.408C128.755 141.531 130.504 139.013 130.504 135.856C130.504 132.784 128.627 130.053 124.872 127.664C121.117 125.275 117.277 123.611 113.352 122.672C107.72 121.136 102.728 119.301 98.376 117.168C93.8533 114.949 90.4827 112.219 88.264 108.976C86.0453 105.733 84.936 102.32 84.936 98.736C84.936 95.408 86.088 92.0373 88.392 88.624C90.696 85.1253 93.4267 82.608 96.584 81.072C98.2907 80.2187 101.192 79.3227 105.288 78.384C109.469 77.36 112.499 76.848 114.376 76.848C116.851 76.848 119.581 77.1467 122.568 77.744C125.555 78.3413 127.987 79.1947 129.864 80.304C133.619 82.4373 136.392 84.3573 138.184 86.064C139.976 87.7707 140.872 89.904 140.872 92.464C140.872 94 140.275 95.3653 139.08 96.56C137.971 97.7547 136.008 98.352 133.192 98.352C132.509 98.352 131.827 98.0533 131.144 97.456C130.461 96.8587 129.608 95.9627 128.584 94.768C127.219 92.976 125.896 91.7813 124.616 91.184C123.336 90.7573 121.459 90.288 118.984 89.776C116.595 89.264 114.461 89.008 112.584 89.008C110.536 89.008 108.403 89.4347 106.184 90.288C103.965 91.1413 102.088 92.3787 100.552 94C99.1013 95.536 98.376 97.328 98.376 99.376C98.376 101.083 99.144 102.576 100.68 103.856C102.301 105.051 104.221 106.032 106.44 106.8C109 107.824 111.773 108.72 114.76 109.488C118.685 110.683 121.885 111.792 124.36 112.816C126.92 113.755 129.395 114.949 131.784 116.4C135.965 118.875 138.995 121.435 140.872 124.08C142.749 126.64 143.688 130.224 143.688 134.832Z" fill="white"/>
</svg>
