<svg width="48" height="41" viewBox="0 0 48 41" fill="none" xmlns="http://www.w3.org/2000/svg">
<g id="ic:round-email">
<path id="Vector" d="M43.0476 1.45215H4.95233C2.33329 1.45215 0.214239 3.59501 0.214239 6.21405L0.19043 34.7855C0.19043 37.4045 2.33329 39.5474 4.95233 39.5474H43.0476C45.6666 39.5474 47.8095 37.4045 47.8095 34.7855V6.21405C47.8095 3.59501 45.6666 1.45215 43.0476 1.45215ZM42.0952 11.5712L25.2619 22.095C24.5 22.5712 23.5 22.5712 22.738 22.095L5.90472 11.5712C5.66597 11.4372 5.4569 11.2561 5.29016 11.0389C5.12343 10.8218 5.00248 10.573 4.93466 10.3078C4.86683 10.0425 4.85353 9.76628 4.89556 9.49574C4.9376 9.22519 5.03409 8.96599 5.1792 8.73382C5.3243 8.50164 5.51501 8.30133 5.73978 8.14499C5.96454 7.98866 6.21869 7.87956 6.48685 7.82429C6.755 7.76902 7.03158 7.76874 7.29985 7.82345C7.56811 7.87817 7.82249 7.98675 8.04757 8.14262L24 18.1188L39.9523 8.14262C40.1774 7.98675 40.4318 7.87817 40.7001 7.82345C40.9683 7.76874 41.2449 7.76902 41.5131 7.82429C41.7812 7.87956 42.0354 7.98866 42.2601 8.14499C42.4849 8.30133 42.6756 8.50164 42.8207 8.73382C42.9658 8.96599 43.0623 9.22519 43.1043 9.49574C43.1464 9.76628 43.1331 10.0425 43.0653 10.3078C42.9974 10.573 42.8765 10.8218 42.7097 11.0389C42.543 11.2561 42.3339 11.4372 42.0952 11.5712Z" fill="#2B2C34"/>
</g>
</svg>
