<svg width="28" height="28" viewBox="0 0 28 28" fill="none" xmlns="http://www.w3.org/2000/svg">
<g id="mdi:linkedin" clip-path="url(#clip0_123_3080)">
<path id="Vector" d="M24.8889 0C25.714 0 26.5053 0.327777 27.0888 0.911223C27.6722 1.49467 28 2.28599 28 3.11111V24.8889C28 25.714 27.6722 26.5053 27.0888 27.0888C26.5053 27.6722 25.714 28 24.8889 28H3.11111C2.28599 28 1.49467 27.6722 0.911223 27.0888C0.327777 26.5053 0 25.714 0 24.8889V3.11111C0 2.28599 0.327777 1.49467 0.911223 0.911223C1.49467 0.327777 2.28599 0 3.11111 0H24.8889ZM24.1111 24.1111V15.8667C24.1111 14.5217 23.5768 13.2319 22.6258 12.2808C21.6748 11.3298 20.3849 10.7956 19.04 10.7956C17.7178 10.7956 16.1778 11.6044 15.4311 12.8178V11.0911H11.0911V24.1111H15.4311V16.4422C15.4311 15.2444 16.3956 14.2644 17.5933 14.2644C18.1709 14.2644 18.7248 14.4939 19.1333 14.9023C19.5417 15.3107 19.7711 15.8646 19.7711 16.4422V24.1111H24.1111ZM6.03556 8.64889C6.72865 8.64889 7.39337 8.37356 7.88346 7.88346C8.37356 7.39337 8.64889 6.72865 8.64889 6.03556C8.64889 4.58889 7.48222 3.40667 6.03556 3.40667C5.33833 3.40667 4.66966 3.68364 4.17665 4.17665C3.68364 4.66966 3.40667 5.33833 3.40667 6.03556C3.40667 7.48222 4.58889 8.64889 6.03556 8.64889ZM8.19778 24.1111V11.0911H3.88889V24.1111H8.19778Z" fill="#2B2C34"/>
</g>
<defs>
<clipPath id="clip0_123_3080">
<rect width="28" height="28" fill="white"/>
</clipPath>
</defs>
</svg>
