<svg width="28" height="28" viewBox="0 0 28 28" fill="none" xmlns="http://www.w3.org/2000/svg">
<g id="mdi:github" clip-path="url(#clip0_123_3078)">
<path id="Vector" d="M14 0C12.1615 0 10.341 0.362121 8.64243 1.06569C6.94387 1.76925 5.40053 2.80048 4.1005 4.1005C1.475 6.72601 0 10.287 0 14C0 20.188 4.018 25.438 9.576 27.3C10.276 27.412 10.5 26.978 10.5 26.6V24.234C6.622 25.074 5.796 22.358 5.796 22.358C5.152 20.734 4.242 20.3 4.242 20.3C2.968 19.432 4.34 19.46 4.34 19.46C5.74 19.558 6.482 20.902 6.482 20.902C7.7 23.03 9.758 22.4 10.556 22.064C10.682 21.154 11.046 20.538 11.438 20.188C8.33 19.838 5.068 18.634 5.068 13.3C5.068 11.746 5.6 10.5 6.51 9.506C6.37 9.156 5.88 7.7 6.65 5.81C6.65 5.81 7.826 5.432 10.5 7.238C11.606 6.93 12.81 6.776 14 6.776C15.19 6.776 16.394 6.93 17.5 7.238C20.174 5.432 21.35 5.81 21.35 5.81C22.12 7.7 21.63 9.156 21.49 9.506C22.4 10.5 22.932 11.746 22.932 13.3C22.932 18.648 19.656 19.824 16.534 20.174C17.038 20.608 17.5 21.462 17.5 22.764V26.6C17.5 26.978 17.724 27.426 18.438 27.3C23.996 25.424 28 20.188 28 14C28 12.1615 27.6379 10.341 26.9343 8.64243C26.2307 6.94387 25.1995 5.40053 23.8995 4.1005C22.5995 2.80048 21.0561 1.76925 19.3576 1.06569C17.659 0.362121 15.8385 0 14 0Z" fill="#2B2C34"/>
</g>
<defs>
<clipPath id="clip0_123_3078">
<rect width="28" height="28" fill="white"/>
</clipPath>
</defs>
</svg>
