<svg width="56" height="56" viewBox="0 0 56 56" fill="none" xmlns="http://www.w3.org/2000/svg">
<g id="skill-icons:css" clip-path="url(#clip0_121_2241)">
<g id="Group">
<path id="Vector" d="M42.875 0H13.125C5.87626 0 0 5.87626 0 13.125V42.875C0 50.1237 5.87626 56 13.125 56H42.875C50.1237 56 56 50.1237 56 42.875V13.125C56 5.87626 50.1237 0 42.875 0Z" fill="#0277BD"/>
<path id="Vector_2" d="M11.7585 22.4549L12.3845 29.4422H28.021V22.4549H11.7585ZM28.0208 8.3125H10.5L11.1352 15.2998H28.0208V8.3125ZM28.0208 47.8715V40.6018L27.9902 40.6098L20.2083 38.5088L19.7109 32.9359H12.6967L13.6756 43.9071L27.9886 47.8804L28.0208 47.8715Z" fill="#EBEBEB"/>
<path id="Vector_3" d="M36.6008 29.4422L35.7897 38.5042L27.9967 40.6077V47.8769L42.3211 43.9071L42.4261 42.7265L44.068 24.3313L44.2385 22.4549L45.5 8.3125H27.9967V15.2998H37.8424L37.2067 22.4549H27.9967V29.4422H36.6008Z" fill="white"/>
</g>
</g>
<defs>
<clipPath id="clip0_121_2241">
<rect width="56" height="56" fill="white"/>
</clipPath>
</defs>
</svg>
