<svg width="56" height="56" viewBox="0 0 56 56" fill="none" xmlns="http://www.w3.org/2000/svg">
<g id="skill-icons:html" clip-path="url(#clip0_121_2181)">
<g id="Group">
<path id="Vector" d="M42.875 0H13.125C5.87626 0 0 5.87626 0 13.125V42.875C0 50.1237 5.87626 56 13.125 56H42.875C50.1237 56 56 50.1237 56 42.875V13.125C56 5.87626 50.1237 0 42.875 0Z" fill="#E14E1D"/>
<path id="Vector_2" d="M10.5 8.3125L12.3834 29.4422H36.6013L35.7886 38.505L27.991 40.6133L20.2081 38.5081L19.6877 32.6889H12.6744L13.6773 43.9066L27.9895 47.8817L42.3198 43.9066L44.2411 22.4558H18.774L18.1346 15.3005H44.8742L45.5 8.3125H10.5Z" fill="white"/>
<path id="Vector_3" d="M28 8.3125H10.5L12.3834 29.4422H28V22.4558H18.774L18.1346 15.3005H28V8.3125ZM28 40.6103L27.991 40.6133L20.2081 38.5081L19.6877 32.6889H12.6744L13.6773 43.9066L27.9895 47.8817L28.0002 47.8787V40.6103H28Z" fill="#EBEBEB"/>
</g>
</g>
<defs>
<clipPath id="clip0_121_2181">
<rect width="56" height="56" fill="white"/>
</clipPath>
</defs>
</svg>
