<svg width="56" height="56" viewBox="0 0 56 56" fill="none" xmlns="http://www.w3.org/2000/svg">
<g id="skill-icons:javascript" clip-path="url(#clip0_121_2250)">
<g id="Group">
<path id="Vector" d="M42.875 0H13.125C5.87626 0 0 5.87626 0 13.125V42.875C0 50.1237 5.87626 56 13.125 56H42.875C50.1237 56 56 50.1237 56 42.875V13.125C56 5.87626 50.1237 0 42.875 0Z" fill="#F0DB4F"/>
<path id="Vector_2" d="M14.7245 46.7976L19.0098 44.2041C19.8367 45.6699 20.5887 46.9103 22.3927 46.9103C24.122 46.9103 25.2122 46.2339 25.2122 43.6028V25.7094H30.4749V43.6771C30.4749 49.1277 27.2798 51.6088 22.6183 51.6088C18.4084 51.6088 15.9648 49.4285 14.7242 46.7972M33.3333 46.2337L37.6182 43.7528C38.7463 45.5949 40.2123 46.9481 42.8058 46.9481C44.9866 46.9481 46.3769 45.8579 46.3769 44.3542C46.3769 42.5499 44.9485 41.9107 42.5427 40.8585L41.2273 40.2944C37.4305 38.6783 34.9118 36.6483 34.9118 32.3629C34.9118 28.4158 37.9192 25.4084 42.6182 25.4084C45.9637 25.4084 48.3695 26.5739 50.0985 29.6187L46.0011 32.2501C45.0988 30.6337 44.1218 29.9948 42.6182 29.9948C41.0768 29.9948 40.0995 30.9721 40.0995 32.2501C40.0995 33.8288 41.0768 34.468 43.3321 35.4456L44.6477 36.0093C49.1209 37.9266 51.6396 39.8809 51.6396 44.2789C51.6396 49.0157 47.9182 51.6092 42.9187 51.6092C38.0321 51.6092 34.8744 49.2787 33.3333 46.2337Z" fill="#323330"/>
</g>
</g>
<defs>
<clipPath id="clip0_121_2250">
<rect width="56" height="56" fill="white"/>
</clipPath>
</defs>
</svg>
