<svg width="40" height="41" viewBox="0 0 40 41" fill="none" xmlns="http://www.w3.org/2000/svg">
<path id="Vector" fill-rule="evenodd" clip-rule="evenodd" d="M34.1723 6.31258C32.3232 4.46265 30.1265 2.99671 27.7087 1.99915C25.2908 1.0016 22.6995 0.492137 20.0839 0.500092C9.10713 0.500092 0.171428 9.39115 0.166964 20.3215C0.162108 23.802 1.07955 27.2216 2.82589 30.2322L0 40.5L10.558 37.7438C13.4805 39.327 16.7521 40.1556 20.0759 40.1545H20.0839C31.0598 40.1545 39.9946 31.2625 39.9999 20.3331C40.0066 17.7265 39.4948 15.1445 38.4943 12.7375C37.4938 10.3305 36.0247 8.14651 34.1723 6.31258ZM20.0839 36.809H20.0768C17.1137 36.8098 14.2045 36.0169 11.6518 34.5125L11.0473 34.1554L4.78214 35.7911L6.45445 29.7117L6.0607 29.0867C4.40391 26.4636 3.52611 23.424 3.52946 20.3215C3.52946 11.2385 10.9589 3.8483 20.0901 3.8483C24.4705 3.84048 28.6746 5.57288 31.7777 8.66447C34.8809 11.7561 36.6289 15.9536 36.6374 20.334C36.6339 29.4179 29.208 36.809 20.0839 36.809ZM29.1633 24.4706C28.666 24.2224 26.2169 23.0242 25.7634 22.859C25.3098 22.6938 24.975 22.6108 24.6437 23.1072C24.3125 23.6036 23.358 24.7143 23.0678 25.0492C22.7776 25.384 22.4875 25.4206 21.9901 25.1724C21.4928 24.9242 19.8884 24.4018 17.9875 22.7143C16.508 21.401 15.5098 19.7795 15.2196 19.284C14.9294 18.7885 15.1884 18.5197 15.4375 18.2733C15.6616 18.051 15.9348 17.6947 16.1839 17.4054C16.433 17.1161 16.516 16.909 16.6812 16.5786C16.8464 16.2483 16.7643 15.959 16.6402 15.7117C16.516 15.4644 15.5205 13.026 15.1062 12.034C14.7018 11.0679 14.2919 11.1992 13.9866 11.184C13.6964 11.1697 13.3616 11.1661 13.0321 11.1661C12.7803 11.1727 12.5324 11.2311 12.3042 11.3377C12.0759 11.4443 11.872 11.5969 11.7053 11.7858C11.2491 12.2822 9.96338 13.4822 9.96338 15.9179C9.96338 18.3536 11.7491 20.7108 11.9955 21.0411C12.2419 21.3715 15.5044 26.3742 20.4964 28.5197C21.4234 28.9167 22.3705 29.2648 23.3339 29.5625C24.5259 29.9393 25.6107 29.8867 26.4678 29.759C27.4241 29.617 29.4142 28.5608 29.8276 27.4036C30.241 26.2465 30.2419 25.2554 30.1178 25.0492C29.9937 24.8429 29.6616 24.7179 29.1633 24.4706Z" fill="#2B2C34"/>
</svg>
